<?xml version="1.0" standalone="no"?>
<!DOCTYPE svg PUBLIC "-//W3C//DTD SVG 20010904//EN"
 "http://www.w3.org/TR/2001/REC-SVG-20010904/DTD/svg10.dtd">
<svg version="1.0" xmlns="http://www.w3.org/2000/svg"
 width="512.000000pt" height="512.000000pt" viewBox="0 0 512.000000 512.000000"
 preserveAspectRatio="xMidYMid meet">

<g transform="translate(0.000000,512.000000) scale(0.100000,-0.100000)"
fill="#000000" stroke="none">
<path d="M190 5111 c-69 -21 -130 -73 -166 -141 -18 -33 -19 -75 -19 -875 l0
-840 22 -41 c12 -22 40 -57 62 -77 70 -63 99 -67 498 -67 l353 0 0 -89 0 -88
-50 -21 c-71 -29 -142 -100 -176 -175 -26 -56 -29 -73 -29 -167 0 -123 12
-155 77 -198 l42 -27 526 -3 527 -3 -22 -81 c-13 -44 -27 -83 -32 -87 -4 -4
-34 -15 -65 -24 -106 -32 -199 -120 -254 -239 l-29 -63 -3 -533 c-3 -466 -1
-540 13 -582 19 -56 69 -118 118 -145 l35 -19 4 -170 c4 -190 12 -218 80 -282
69 -66 82 -69 303 -69 221 0 234 3 303 69 68 63 76 93 80 273 l4 163 769 0
769 0 0 -157 c0 -145 2 -162 24 -209 27 -59 82 -107 145 -129 63 -21 359 -21
422 0 63 22 113 66 143 127 25 50 26 59 26 219 l0 167 30 12 c17 7 48 30 69
52 74 73 72 56 69 674 l-3 550 -36 72 -35 72 51 0 c111 0 211 55 258 144 19
35 22 56 22 156 0 129 -13 166 -77 226 -69 66 -82 69 -303 69 -217 0 -234 -4
-297 -63 -16 -14 -28 -22 -28 -18 0 4 -43 167 -95 363 -59 219 -106 375 -122
405 -31 57 -85 107 -152 140 l-46 23 -547 3 -548 3 -2 762 c-3 731 -4 764 -22
801 -25 50 -72 97 -122 122 -38 18 -75 19 -1289 21 -687 1 -1261 -2 -1275 -6z
m2511 -190 l29 -29 0 -611 0 -611 -170 0 -170 0 0 188 c0 178 -1 191 -23 232
-38 73 -84 90 -234 90 -140 0 -183 -14 -225 -72 -22 -32 -23 -42 -26 -235 l-3
-203 -85 0 -84 0 0 303 c0 188 -4 317 -11 342 -15 52 -65 100 -119 115 -27 7
-90 11 -156 8 -100 -3 -114 -6 -151 -30 -75 -50 -78 -61 -81 -420 l-3 -318
-85 0 -84 0 0 491 c0 552 2 538 -73 587 -37 25 -51 27 -156 30 -165 5 -224
-18 -262 -102 -17 -38 -19 -75 -19 -523 l0 -483 -170 0 -170 0 0 611 0 611 29
29 29 29 1222 0 1222 0 29 -29z m-1851 -781 l0 -470 -85 0 -85 0 0 470 0 470
85 0 85 0 0 -470z m688 -172 l2 -298 -85 0 -85 0 0 300 0 301 83 -3 82 -3 3
-297z m682 -128 l0 -170 -85 0 -85 0 0 170 0 170 85 0 85 0 0 -170z m510 -439
c0 -91 -2 -102 -24 -128 l-24 -28 -1232 0 -1232 0 -24 28 c-22 26 -24 37 -24
128 l0 99 1280 0 1280 0 0 -99z m1249 -181 c22 -11 48 -34 59 -52 18 -29 282
-988 282 -1024 0 -12 -75 -14 -522 -14 l-523 0 280 280 c276 276 280 280 280
321 0 51 -30 79 -84 79 -34 0 -54 -18 -376 -340 l-340 -340 -257 0 c-142 0
-258 3 -258 7 0 4 124 132 275 283 247 248 275 279 275 308 0 46 -38 82 -87
82 -36 0 -51 -14 -378 -340 l-340 -340 -138 0 c-75 0 -137 3 -137 6 0 4 10 42
21 85 22 77 22 78 60 84 131 22 185 175 128 361 -18 57 -31 77 -82 129 -40 39
-79 68 -109 80 l-48 18 0 88 0 89 353 0 c403 0 429 4 502 71 23 22 48 53 55
69 l12 30 530 0 c506 0 530 -1 567 -20z m-2189 -235 l0 -85 -340 0 -340 0 0
85 0 85 340 0 340 0 0 -85z m153 -269 c73 -30 114 -111 105 -206 l-3 -35 -595
0 -595 0 -3 42 c-6 86 37 170 103 199 44 20 941 20 988 0z m2978 -355 c27 -27
29 -35 29 -100 0 -59 -4 -74 -24 -98 l-24 -28 -189 0 -188 0 0 103 c0 101 1
104 28 128 27 23 34 24 183 24 l156 0 29 -29z m-376 -425 c28 -13 62 -36 77
-52 33 -36 67 -110 68 -146 l0 -27 -323 -3 -324 -3 -41 -27 c-34 -23 -51 -48
-101 -149 -69 -137 -76 -178 -38 -243 28 -50 64 -76 118 -87 24 -4 194 -8 377
-9 l332 0 0 -229 0 -229 -31 -26 -31 -26 -1480 2 -1480 3 -24 28 c-24 28 -24
30 -24 253 l0 224 338 0 c185 0 355 5 376 10 83 19 136 84 136 166 0 44 -9 71
-55 162 -59 117 -92 155 -153 172 -22 6 -163 10 -341 10 l-303 0 7 38 c16 88
84 169 164 198 29 10 311 13 1371 13 l1335 1 50 -24z m-2287 -481 l42 -85
-340 0 -340 0 0 85 0 85 298 0 298 0 42 -85z m2432 0 l0 -85 -335 0 c-184 0
-335 2 -335 5 0 3 18 41 40 85 l40 80 295 0 295 0 0 -85z m-2470 -1086 l0
-141 -29 -29 -29 -29 -157 0 -157 0 -29 29 -29 29 0 141 0 141 215 0 215 0 0
-141z m2300 -4 c0 -201 3 -199 -235 -193 -193 4 -185 -4 -185 194 l0 144 210
0 210 0 0 -145z"/>
<path d="M2950 1698 c-54 -29 -63 -95 -20 -138 19 -19 34 -20 229 -20 l210 0
20 26 c29 37 27 85 -5 115 -25 23 -30 24 -217 27 -141 2 -199 -1 -217 -10z"/>
<path d="M2691 1360 c-46 -11 -82 -39 -109 -86 -21 -36 -22 -49 -20 -175 3
-131 4 -137 31 -172 57 -75 36 -72 568 -72 l475 0 41 27 c63 41 73 74 73 231
0 123 -2 137 -22 167 -30 44 -66 69 -114 80 -48 12 -876 11 -923 0z m889 -255
l0 -85 -425 0 -425 0 0 85 0 85 425 0 425 0 0 -85z"/>
</g>
</svg>
